<mxfile host="app.diagrams.net" modified="2022-05-30T06:14:08.874Z" agent="5.0 (Windows NT 10.0; Win64; x64) AppleWebKit/537.36 (KHTML, like Gecko) Chrome/101.0.4951.54 Safari/537.36" etag="Is88vIIE0kRCzrQzBIp_" version="18.1.3" type="github">
  <diagram id="Giaclcl2qTH_iqWmxGCY" name="第 1 页">
    <mxGraphModel dx="677" dy="378" grid="1" gridSize="10" guides="1" tooltips="1" connect="1" arrows="1" fold="1" page="1" pageScale="1" pageWidth="827" pageHeight="1169" math="0" shadow="0">
      <root>
        <mxCell id="0" />
        <mxCell id="1" parent="0" />
        <mxCell id="n6Cm1QHfj7xVP_lD2rRh-1" value="" style="rounded=1;whiteSpace=wrap;html=1;strokeWidth=2;fillWeight=4;hachureGap=8;hachureAngle=45;fillColor=#1ba1e2;sketch=1;opacity=60;glass=0;shadow=0;labelBorderColor=#99FFFF;labelBackgroundColor=none;fillStyle=auto;gradientColor=none;strokeColor=#B266FF;perimeterSpacing=0;simplification=0;" parent="1" vertex="1">
          <mxGeometry x="300" y="640" width="120" height="60" as="geometry" />
        </mxCell>
        <mxCell id="n6Cm1QHfj7xVP_lD2rRh-2" value="" style="ellipse;whiteSpace=wrap;html=1;strokeWidth=2;fillWeight=2;hachureGap=8;fillColor=#990000;fillStyle=dots;sketch=1;" parent="1" vertex="1">
          <mxGeometry x="80" y="840" width="120" height="60" as="geometry" />
        </mxCell>
      </root>
    </mxGraphModel>
  </diagram>
</mxfile>
